# xmcd
# 
# Track frame offsets:
#     183
#     25108
#     51225
#     75223
#     101108
#     120813
#     149175
#     173895
# 
# Disc length: 2539
# 
# Revision: 2
# Processed by: cddbd v1.5.2PL0 Copyright (c) Steve Scherf et al.
# Submitted via: BonkEnc v1.0.8
# 
DISCID=6109e908
DTITLE=Jeff Richman - Fingerpaints
DYEAR=1989
DGENRE=Fusion
TTITLE0=Rainbow Street
TTITLE1=Tangletown
TTITLE2=On My Knees
TTITLE3=Like Someone In Love
TTITLE4=Big Moments
TTITLE5=Home
TTITLE6=Some Of You
TTITLE7=Fingerpaints
EXTD=
EXTT0=
EXTT1=
EXTT2=
EXTT3=
EXTT4=
EXTT5=
EXTT6=
EXTT7=
PLAYORDER=
